<?xml version="1.0" standalone="no"?><!DOCTYPE svg PUBLIC "-//W3C//DTD SVG 1.1//EN" "http://www.w3.org/Graphics/SVG/1.1/DTD/svg11.dtd"><svg t="1614486988403" class="icon" viewBox="0 0 1024 1024" version="1.1" xmlns="http://www.w3.org/2000/svg" p-id="16029" xmlns:xlink="http://www.w3.org/1999/xlink" width="48" height="48"><defs><style type="text/css"></style></defs><path d="M510.32 511.8m-447.67 0a447.67 447.67 0 1 0 895.34 0 447.67 447.67 0 1 0-895.34 0Z" fill="#2CD189" p-id="16030"></path><path d="M510.32 979.47c-63.13 0-124.37-12.37-182.04-36.76-55.69-23.56-105.7-57.27-148.65-100.22s-76.66-92.96-100.22-148.65C55.02 636.17 42.65 574.92 42.65 511.8s12.37-124.37 36.76-182.04c23.56-55.69 57.27-105.7 100.22-148.65s92.96-76.66 148.65-100.22C385.95 56.5 447.2 44.13 510.32 44.13S634.69 56.5 692.36 80.89c55.69 23.56 105.7 57.27 148.65 100.22s76.66 92.96 100.22 148.65c24.39 57.67 36.76 118.92 36.76 182.04s-12.37 124.37-36.76 182.04c-23.56 55.69-57.27 105.7-100.22 148.65s-92.96 76.66-148.65 100.22c-57.67 24.39-118.91 36.76-182.04 36.76z m0-895.34c-57.74 0-113.75 11.3-166.46 33.6-50.92 21.54-96.66 52.38-135.95 91.66-39.28 39.28-70.12 85.02-91.66 135.95-22.29 52.71-33.6 108.72-33.6 166.46 0 57.74 11.3 113.75 33.6 166.46 21.54 50.92 52.38 96.66 91.66 135.95 39.28 39.28 85.02 70.12 135.95 91.66 52.71 22.29 108.72 33.6 166.46 33.6s113.75-11.3 166.46-33.6c50.92-21.54 96.66-52.38 135.95-91.66 39.28-39.28 70.12-85.02 91.66-135.95 22.29-52.71 33.6-108.72 33.6-166.46 0-57.74-11.3-113.75-33.6-166.46-21.54-50.92-52.38-96.66-91.66-135.95-39.28-39.28-85.02-70.12-135.95-91.66-52.71-22.29-108.72-33.6-166.46-33.6z" fill="#FFFFFF" p-id="16031"></path><path d="M712.19 696.03H611.91l-29.17-87.52H429.57l-29.17 87.52h-98.46l149.52-402.96h109.4l151.33 402.96z m-145.87-156.8l-51.05-138.57c-3.65-12.14-6.7-23.7-9.12-34.64h-1.82c-1.23 9.74-4.27 21.88-9.12 36.47l-45.58 136.75h116.69z" fill="#FFFFFF" p-id="16032"></path></svg>